<?xml version="1.0" encoding="utf-8"?>
<!-- Generator: Adobe Illustrator 24.3.0, SVG Export Plug-In . SVG Version: 6.00 Build 0)  -->
<svg version="1.1" id="Layer_1" xmlns="http://www.w3.org/2000/svg" xmlns:xlink="http://www.w3.org/1999/xlink" x="0px" y="0px"
	 viewBox="0 0 1347 851" style="enable-background:new 0 0 1347 851;" xml:space="preserve">
<style type="text/css">
	.st0{fill:#1A1A1A;}
</style>
<path class="st0" d="M829.5,646.8l-5.7,5.3l-4.5-2.6l-4.9,0.8l-5.7-3.8l-1.9-3.8l-0.4-1.9l-1.1-1.9l-2.6-0.8l-4.2,0.4l-4.9,2.3
	l-5.3-0.4l-5.7-7.6l2.3-4.9l-3-3h-3.8l-4.2,2.6h-29.5l-2.6-4.2V617l-4.5-3.4l-0.4-5.3l-0.4-1.9l1.1-4.2l2.3-3.4v-6.4
	c0,0-2.3,0.8-2.6,0.8c-0.4,0-4.5,0-4.5,0l-4.9-2.6l-1.1,1.1h-2.3l-2.3,1.5l-1.5,0.8v1.5h-3.4l-0.8,1.9l-2.6,0.4v2.3l-3,2.3h-4.5
	l-1.1,1.1l-2.3,0.4l-3.4,3l-3.8,1.1c0,0-2.3,1.1-2.6,2.6c-0.4,1.5-5.3,8.7-5.3,8.7l0,0l-3,6l-6.4,5.3l-1.9-1.5v-2.3l-6,4.2l-0.8,3.8
	l-1.1,1.9l-6,0.4l-1.1-1.9l-1.9-0.8l-1.5,1.1l-0.4,2.3l-5.7,0.8l-5.3,1.1l-1.9,1.1L644,640l0.8-1.5v-3.8l1.1-2.3l-0.4-1.1l-4.9-4.5
	l-1.5-0.8l-4.2-0.4v-3l-2.3-2.3v-2.6h-3l1.5-3.8l-2.6-4.5l0.4-4.2l-0.8-1.1v-5.7l-4.9-3.4l-6.4,3l-6-4.2v-2.3l2.3-1.5v-4.5l-2.6-4.5
	l-6.4-1.5l-1.1-1.9l-1.9-8.3l1.1-2.6l0.4-1.5l-5.3-4.5l-3.8,0.8H590l-1.1-4.2l0.4-12.1l-1.9-1.1l-0.4-2.3l-2.6,0.4l-1.9-0.8
	l-0.4-7.6h-1.9l-3.8,0.8l-3.4-1.1l-0.8-3.8l1.1-3.4l3-3.4l0.4-0.4v-2.6c0,0-2.3-0.8-2.6-0.8s-3-0.4-3-0.4l-1.5-0.8l0.4-1.9l1.1-1.1
	l0.4-5.3l1.9-0.8l0.8-0.8l0.4-2.3l1.1-1.1l1.1-2.3l1.5-0.8l3-0.4l-0.4-1.5l-2.6-3l-3.8-1.5l-1.5-1.1l-1.9-1.9l-1.9,1.1h-1.5
	l-1.1-1.1l-0.4-1.9l-1.1-0.8l-3.8-0.4h-1.1l-1.1,2.3l-4.2-1.1l-1.9-1.9v-1.1l1.1-2.3l-0.4-2.6l-1.5-1.1l-1.9,0.4l-0.8,0.8l-1.9-1.9
	l-1.5,1.1l-1.1,0.8l-3-1.5l-1.9-1.5l-0.8-1.5l1.1-7.2v-2.6l-0.8-1.1l-3-0.4l-2.3-0.8h-3h-1.9l-1.5-0.4l-1.9,1.1l-3-1.9h-4.5
	l-1.5,1.9h-4.5v-1.5l-1.5-0.4h-1.5l-1.1,0.4l-3.8-0.4l-0.8-1.1V461l0.8-1.5l-3.8-2.6l-4.2,0.8l-0.8-0.8l0.4-4.2l-2.3-2.6l-3,0.8
	l-0.8,0.8l-0.8,0.8h-3.4v2.6l-4.9,4.2l-4.9-4.9v-2.6l-3.4-2.6v-3.4l-1.5-2.6v-1.1l2.3-0.8l0.4-3l0.8-0.8l-1.1-0.4l-1.9,1.1l-1.1,0.8
	l-0.4,1.5h-3.8h-5.7l-4.5-1.9l-3,1.9l-0.4,3.4l-1.1,2.3l-3.4,0.4l-1.1,1.5l-2.3,1.5l-1.5,0.8l-1.9,0.4l-1.9-0.8l-3.4-3.8l-0.4-3
	l-1.1-6l-5.7-3.8l-0.4-3l-1.5-3l-1.1-2.3l-0.4-3v-3.4l0.4-3.4l2.6-1.9h1.9l1.1-3l0.8-0.4l0.4-4.2l2.6-0.8l1.1-1.9l1.1,0.4l0.4,0.4h3
	l0.4-0.8l0.4-2.6l1.9,2.6l1.1,1.1l1.9-0.4l1.5-1.9l0.4-0.4h12.8l3.4-4.2l3.4-3l1.1-0.4l5.7-8.3l1.1-0.8l1.1,0.4l1.5,1.5l2.6,0.4
	l5.3-0.4l2.6-1.9h10.6l2.3-0.4l1.9-2.3l1.5,0.4l3.8-0.8l1.1-1.5l2.6,2.6l2.3,0.4l1.9-1.5l2.6,1.9l3-3l1.5-1.5l3.4-0.8l3.4,4.2
	l3.4-2.6l1.1-0.4l1.9,1.5l2.3-1.1l3,2.6v2.3l1.1,0.8l3-3.4h6l0.8-0.8l0.4-2.3l1.1-0.4l0.4-3l3-3l-3.4-3v-3.4l7.2-10.6l2.6-1.9h5.3
	l3,2.3l3-0.4l2.3-1.9l4.5-5.7l3-3h2.6l2.3-5.3v-4.5l0.4-2.6l1.5-0.4l0.8-0.8l0.8-3l4.2-4.2V319l3.4-1.9l1.9-4.2l1.1-0.8l0.4-2.6
	l2.6-4.2h5.7l6,7.9h3l1.5-1.5l1.5,1.1h1.9l0.4-1.9h8.7l1.1-5.7l2.3-5.3l3.8-0.4l3.4-1.9l2.6,1.1l6.4,4.5l3.4-2.6l1.1-1.9l2.3,2.3
	l2.6-0.8l2.6-2.3h1.1l2.6-3.8l3-2.3l-1.1-4.5l5.3-4.5h1.5l2.6-3.8l0.4-3.4h2.6l3.8,0.8l1.5,1.9l0.8,3l1.9,1.9v0.8h2.6l0.4,1.5
	l1.9,1.1l0.8,0.4l0.4,2.3h2.3v2.6l0.4,1.1l3,1.9l1.9,1.9l3.8,3.4l0.8,1.1l0.4,3l2.6,3.8l2.3,2.3l2.6,1.5l1.9,0.8l0.4,2.3l0.4,0.8
	l4.2,0.4l0.8,2.3l0.8,1.1l0.4,3l5.7,3.4l0.4,0.8v2.3l1.9,0.4l6.8,8.3l0.8,1.1l2.3,0.8l0.4,1.1h1.9v2.6h-1.1l1.1,3.4l1.5,2.6v4.5
	l5.3,6l0.8,1.1v1.9l1.1,0.8l1.1,3.4l1.5,2.3l1.1,1.1v2.6l-1.5,1.1l3.8,5.3l0.4,3.4l3.4,3h1.1l1.5-1.1l2.6,0.4l4.5,5.3v1.5l4.5,4.9
	l0.4,4.5h3.8l2.3,2.6l1.1,2.6l0.4,1.9l-0.4,3l-0.8,1.9v4.5l-2.3,0.8l-0.8,1.1c0,0,0.4,1.9,0.4,2.3c0,0.4,0.4,3,0.4,3l-1.1,3.4v2.6
	v4.9l-4.2,3.4v3.8l0.8,0.8l-0.4,4.9l-1.1,1.1l-0.8,2.3l-0.8,4.5l-0.4,0.8v5.3v2.3l1.1,1.1h1.9l2.6-1.5l3.8-5.7l1.1-0.4h6.4l4.2-5.3
	h3.8l1.9-1.5l1.9,0.8l4.9-3.4l3.8,3l2.6,1.5h1.5l0.4,1.9l2.6,1.5h1.9l1.5-1.1l1.9,1.5h3.4l-1.1,1.9L831,464h-2.3l-1.5,2.3l0.8,1.1
	l2.6,0.8l2.6,5.3v2.3l0.8,1.5l0.4,1.1v7.6l-0.8,2.6l0.8,4.9h3.4l1.9,5.7l0.4,2.6l0.8,1.1l1.1,0.8l-1.1,1.9l-3.4,0.4l-1.9,1.9V529
	l0.8,1.9l0.8,0.8l0.8,5.3l-0.4,4.9l-1.5,3.8v6.8l-1.5,2.6l1.1,1.1v4.2l-1.5,1.1v3l-1.9,1.9v1.9l-0.8,0.4v2.3l-0.4,1.1h-1.9l-1.1,1.1
	v7.2l-3.8,3.4l-0.4,3v2.3l3,5.3l0.4,0.4v6.4l4.5,11.7l-0.4,6.8l-3,6v5.7l-0.8,4.9v4.5L829.5,646.8z M1346-1H-1v851h1347V-1z"/>
</svg>
